<svg width="18" height="18" viewBox="0 0 18 18" fill="none" xmlns="http://www.w3.org/2000/svg">
<path d="M6.57 1.5H9.4905C10.8135 1.5 11.862 1.5 12.6818 1.611C13.5263 1.725 14.2095 1.965 14.748 2.50575C15.2873 3.0465 15.5265 3.73275 15.6397 4.58025C15.75 5.40375 15.75 6.456 15.75 7.78425V12.1627C15.75 13.2937 15.06 14.2627 14.0797 14.6693C14.13 13.9867 14.13 13.0305 14.13 12.234V8.4765C14.13 7.51575 14.13 6.687 14.0415 6.024C13.9463 5.313 13.7318 4.632 13.1813 4.07925C12.6308 3.5265 11.952 3.31125 11.244 3.21525C10.584 3.12675 9.759 3.12675 8.80125 3.12675H6.49875C5.54175 3.12675 4.71825 3.12675 4.0575 3.21525C4.25551 2.71003 4.60111 2.27617 5.04927 1.97022C5.49743 1.66426 6.02736 1.50041 6.57 1.5Z" fill="white"/>
<path d="M13.0508 8.5477C13.0508 6.5032 13.0508 5.48095 12.4178 4.8457C11.7855 4.21045 10.7678 4.21045 8.73078 4.21045H6.57078C4.53453 4.21045 3.51603 4.21045 2.88303 4.8457C2.25078 5.48095 2.25078 6.5032 2.25078 8.5477V12.1627C2.25078 14.2072 2.25078 15.2294 2.88303 15.8647C3.51603 16.4999 4.53453 16.4999 6.57078 16.4999H8.73078C10.767 16.4999 11.7855 16.4999 12.4178 15.8647C13.0508 15.2294 13.0508 14.2072 13.0508 12.1627V8.5477Z" fill="white"/>
</svg>
