<svg width="237" height="31" viewBox="0 0 237 31" fill="none" xmlns="http://www.w3.org/2000/svg">
<path d="M60.7578 29H54.1953V27.0859C51.5195 29.0586 47.9453 30.0547 43.4336 30.0352H18.1211C9.37109 30.0352 3.94141 27.3594 1.83203 22.0078C1.08984 20.25 0.71875 18.082 0.71875 15.4844C0.71875 12.8867 1.08984 10.7188 1.83203 8.96094C4 3.49219 9.42969 0.816406 18.1211 0.914062H43.5117C52.0859 0.835938 57.4766 3.51172 59.6445 8.96094C59.9766 9.72266 60.2305 10.6406 60.4453 11.6758H51.7148C51.1875 10.4258 50.2891 9.44922 49.0195 8.74609C47.75 8.02344 45.9141 7.67188 43.5117 7.67188H18.1211C13.5703 7.67188 10.7578 9.07812 9.68359 11.8711C9.3125 12.6914 9.11719 13.9023 9.11719 15.4844C9.11719 17.0664 9.3125 18.2578 9.68359 19.0781C10.7578 21.9102 13.5703 23.3164 18.1211 23.3164H43.5117C46.793 23.2969 49.1367 22.5938 50.5234 21.207H31.5586V14.7617H60.6797L60.7578 29ZM118.023 2.00781H128.18V29H120.074V10.9922L100.504 29H93.3359L73.8242 10.9922V29H65.6992V2.00781H75.875L96.9492 21.4805L118.023 2.00781ZM144.469 2.00781H153.512L166.754 29H157.75L156.148 25.7578H141.871L140.27 29H131.227L144.469 2.00781ZM144.996 19.2734H152.906L149 11.207L144.996 19.2734ZM180.602 2.00781H189.645L202.887 29H193.883L192.281 25.7578H178.004L176.402 29H167.359L180.602 2.00781ZM181.129 19.2734H189.039L185.133 11.207L181.129 19.2734ZM236.48 9.95703V10.6406H228.082V10.5234C228.082 9.66406 227.906 9.07812 227.555 8.76562C227.184 8.39453 226.559 8.10156 225.719 7.92578C224.625 7.69141 222.906 7.57422 220.562 7.55469H220.191C217.867 7.57422 216.188 7.71094 215.113 7.96484C213.512 8.375 212.789 9.11719 212.945 10.2305C213.043 10.8359 213.395 11.2461 214.02 11.4219C214.664 11.5977 214.977 11.6562 215.68 11.7539L220.465 12.0469C222.281 12.0664 223.785 12.125 224.996 12.2227C226.227 12.3203 227.457 12.4766 228.688 12.6914C229.938 12.9062 230.973 13.1797 231.773 13.5508C233.395 14.2539 234.859 15.4062 235.719 17.125C236.207 18.043 236.441 19.1758 236.441 20.5234C236.441 21.8711 236.207 23.082 235.758 24.1172C235.113 25.582 234.039 26.7539 232.516 27.6328C230.113 29.0195 226.148 29.7031 220.602 29.7227H220.426C214.781 29.7227 210.797 29.0586 208.473 27.7109C206.949 26.832 205.875 25.6406 205.23 24.1562C204.801 23.2188 204.566 22.1445 204.547 20.9141V20.2305H212.945V20.4062C212.945 21.2266 213.121 21.793 213.473 22.125C213.844 22.4961 214.449 22.7891 215.27 22.9648C216.363 23.1992 218.082 23.3164 220.426 23.3164H220.602C222.867 23.3164 224.547 23.1992 225.641 22.9648C227.32 22.5938 228.121 21.832 228.043 20.7188C227.984 20.0742 227.633 19.6641 227.008 19.4492C226.402 19.2148 226.051 19.1367 225.348 19.0781L220.465 18.8047C218.688 18.7461 217.184 18.6875 215.973 18.6094C214.762 18.5117 213.531 18.375 212.281 18.1602C211.051 17.9453 210.016 17.6719 209.195 17.3008C207.574 16.5781 206.129 15.3672 205.27 13.7266C204.781 12.8086 204.547 11.6758 204.547 10.3086C204.547 8.92188 204.781 7.73047 205.23 6.71484C205.875 5.25 206.949 4.07812 208.473 3.19922C210.797 1.85156 214.781 1.16797 220.426 1.16797H220.602C226.246 1.16797 230.23 1.85156 232.555 3.19922C234.078 4.07812 235.152 5.25 235.797 6.71484C236.227 7.67188 236.461 8.76562 236.48 9.95703Z" fill="white"/>
</svg>
